<?xml version="1.0" standalone="no"?>
<!DOCTYPE svg PUBLIC "-//W3C//DTD SVG 20010904//EN"
 "http://www.w3.org/TR/2001/REC-SVG-20010904/DTD/svg10.dtd">
<svg version="1.0" xmlns="http://www.w3.org/2000/svg"
 width="1080.000000pt" height="1080.000000pt" viewBox="0 0 1080.000000 1080.000000"
 preserveAspectRatio="xMidYMid meet">
<metadata>
Created by potrace 1.11, written by Peter Selinger 2001-2013
</metadata>
<g transform="translate(0.000000,1080.000000) scale(0.100000,-0.100000)"
fill="#000000" stroke="none">
<path d="M4500 10320 c-139 -17 -202 -44 -272 -116 -82 -83 -135 -207 -193
-449 -66 -277 -102 -549 -160 -1235 -33 -383 -55 -561 -115 -920 -60 -363 -90
-576 -130 -925 -46 -406 -57 -466 -146 -775 -76 -261 -85 -339 -82 -670 l3
-285 -117 -475 c-128 -520 -156 -642 -218 -952 -66 -334 -69 -367 -80 -908
-10 -492 -17 -617 -46 -773 -9 -45 -18 -164 -21 -265 -8 -269 18 -401 94 -474
75 -71 153 -91 371 -92 140 -1 144 -2 162 -26 10 -13 24 -42 31 -63 31 -95
115 -174 217 -203 114 -34 391 -33 507 0 166 49 225 177 255 556 20 254 25
263 187 351 219 118 256 207 257 605 1 188 4 234 16 250 58 75 105 124 123
130 12 4 85 8 162 9 77 1 159 5 182 9 54 11 60 0 78 -161 14 -117 33 -219 85
-458 19 -89 30 -219 50 -611 26 -517 100 -768 255 -864 102 -63 485 -67 602
-6 50 25 110 99 134 166 28 77 52 95 116 85 26 -4 79 -19 118 -35 115 -45 175
-55 355 -54 241 1 352 34 447 131 124 128 176 337 176 708 1 343 -34 575 -153
1015 -236 874 -254 962 -280 1345 -21 314 -39 412 -129 717 -113 381 -122 433
-141 798 -6 113 -15 248 -21 300 -38 360 -157 940 -298 1460 -34 124 -68 262
-76 308 -43 242 -58 628 -35 847 14 133 14 417 0 534 -20 159 -73 402 -169
766 -128 489 -146 537 -228 604 -87 71 -216 96 -470 88 -197 -6 -280 -21 -419
-78 -72 -30 -88 -33 -184 -33 -101 0 -109 2 -230 48 -68 26 -154 54 -190 62
-82 17 -295 25 -380 14z m262 -354 c51 -19 118 -45 148 -59 145 -65 294 -89
468 -75 127 9 200 28 312 78 119 54 206 73 302 67 134 -9 155 -33 198 -222 12
-49 57 -223 100 -385 74 -276 122 -496 151 -685 11 -73 9 -98 -12 -245 -56
-388 -13 -980 102 -1377 130 -452 266 -1096 304 -1433 8 -74 17 -218 20 -320
11 -351 29 -452 156 -878 84 -280 109 -404 109 -537 0 -163 31 -443 70 -635
17 -80 142 -564 275 -1055 60 -222 86 -403 92 -633 6 -214 -1 -278 -39 -380
-24 -65 -76 -125 -132 -155 -32 -17 -59 -22 -116 -22 -89 0 -127 17 -162 72
-20 33 -23 50 -23 133 1 52 5 141 9 198 8 88 7 107 -8 141 -20 42 -50 61 -99
61 -78 -1 -113 -76 -152 -325 -25 -163 -43 -195 -106 -197 -26 -1 -39 6 -63
34 -35 40 -51 83 -95 244 -56 206 -84 259 -133 252 -16 -2 -30 -17 -45 -48
-20 -37 -23 -60 -23 -148 0 -57 7 -158 16 -225 19 -147 15 -277 -10 -330 -54
-111 -179 -104 -238 14 -64 124 -83 265 -103 762 -15 355 -21 404 -78 632 -44
174 -57 273 -67 520 -17 418 -62 590 -170 645 -97 49 -149 10 -200 -152 -72
-229 -81 -255 -103 -293 -12 -22 -38 -49 -58 -59 -80 -43 -144 3 -335 240 -63
78 -126 150 -139 158 -35 23 -68 20 -96 -10 -22 -24 -24 -33 -24 -132 0 -99 2
-111 29 -162 24 -46 29 -68 30 -132 1 -72 -1 -79 -27 -105 -15 -15 -58 -48
-95 -73 -122 -82 -138 -159 -71 -350 30 -86 33 -106 33 -215 1 -159 -5 -168
-162 -242 -159 -75 -232 -152 -262 -275 -6 -23 -15 -133 -20 -243 -16 -306
-27 -350 -101 -379 -47 -19 -78 -20 -131 -4 -74 22 -106 90 -148 318 -32 177
-49 227 -82 255 -40 34 -87 33 -125 -2 -16 -16 -63 -73 -105 -128 -41 -55 -85
-109 -97 -120 -29 -25 -88 -26 -125 -1 -64 41 -70 121 -27 348 44 228 51 325
51 722 1 551 7 622 84 1001 35 176 124 563 196 860 202 830 201 826 150 930
-35 69 -37 114 -15 251 13 82 33 155 109 410 53 176 74 309 136 854 33 287 57
454 125 855 51 302 75 501 110 930 49 593 88 888 151 1135 51 201 99 291 179
341 44 28 102 23 207 -15z"/>
<path d="M5110 6207 c-60 -29 -134 -256 -164 -502 -23 -186 -21 -415 3 -480
11 -27 29 -77 42 -111 l23 -61 -39 -79 c-34 -67 -40 -90 -43 -158 -3 -49 0
-87 8 -101 32 -59 161 -95 351 -95 196 0 287 24 343 90 33 39 34 82 5 211 -18
82 -22 145 -28 489 -7 303 -12 416 -26 486 -18 100 -44 154 -73 154 -36 0 -51
-34 -77 -175 -37 -198 -61 -245 -129 -245 -28 0 -51 27 -67 81 -5 19 -14 115
-20 214 -11 205 -19 253 -50 278 -25 20 -27 20 -59 4z"/>
</g>
</svg>
