<?xml version="1.0" standalone="no"?>
<!DOCTYPE svg PUBLIC "-//W3C//DTD SVG 20010904//EN"
 "http://www.w3.org/TR/2001/REC-SVG-20010904/DTD/svg10.dtd">
<svg version="1.0" xmlns="http://www.w3.org/2000/svg"
 width="1080.000000pt" height="1080.000000pt" viewBox="0 0 1080.000000 1080.000000"
 preserveAspectRatio="xMidYMid meet">
<metadata>
Created by potrace 1.14, written by Peter Selinger 2001-2017
</metadata>
<g transform="translate(0.000000,1080.000000) scale(0.100000,-0.100000)"
fill="#000000" stroke="none">
<path d="M4500 10320 c-139 -17 -202 -44 -272 -116 -82 -83 -135 -207 -193
-449 -66 -277 -102 -549 -160 -1235 -33 -383 -55 -561 -115 -920 -60 -363 -90
-576 -130 -925 -46 -406 -57 -466 -146 -775 -76 -261 -85 -339 -82 -670 l3
-285 -117 -475 c-128 -520 -156 -642 -218 -952 -66 -334 -69 -367 -80 -908
-10 -492 -17 -617 -46 -773 -9 -45 -18 -164 -21 -265 -8 -269 18 -401 94 -474
75 -71 153 -91 371 -92 140 -1 144 -2 162 -26 10 -13 24 -42 31 -63 31 -95
115 -174 217 -203 114 -34 391 -33 507 0 166 49 225 177 255 556 20 254 25
263 187 351 219 118 256 207 257 605 1 188 4 234 16 250 58 75 105 124 123
130 12 4 85 8 162 9 77 1 159 5 182 9 54 11 60 0 78 -161 14 -117 33 -219 85
-458 19 -89 30 -219 50 -611 26 -517 100 -768 255 -864 102 -63 485 -67 602
-6 50 25 110 99 134 166 28 77 52 95 116 85 26 -4 79 -19 118 -35 115 -45 175
-55 355 -54 241 1 352 34 447 131 124 128 176 337 176 708 1 343 -34 575 -153
1015 -236 874 -254 962 -280 1345 -21 314 -39 412 -129 717 -113 381 -122 433
-141 798 -6 113 -15 248 -21 300 -38 360 -157 940 -298 1460 -34 124 -68 262
-76 308 -43 242 -58 628 -35 847 14 133 14 417 0 534 -20 159 -73 402 -169
766 -128 489 -146 537 -228 604 -87 71 -216 96 -470 88 -197 -6 -280 -21 -419
-78 -72 -30 -88 -33 -184 -33 -101 0 -109 2 -230 48 -68 26 -154 54 -190 62
-82 17 -295 25 -380 14z"/>
</g>
</svg>
