<?xml version="1.0" standalone="no"?>
<!DOCTYPE svg PUBLIC "-//W3C//DTD SVG 20010904//EN"
 "http://www.w3.org/TR/2001/REC-SVG-20010904/DTD/svg10.dtd">
<svg version="1.0" xmlns="http://www.w3.org/2000/svg"
 width="1080.000000pt" height="1080.000000pt" viewBox="0 0 1080.000000 1080.000000"
 preserveAspectRatio="xMidYMid meet">
<metadata>
Created by potrace 1.14, written by Peter Selinger 2001-2017
</metadata>
<g transform="translate(0.000000,1080.000000) scale(0.100000,-0.100000)"
fill="#000000" stroke="none">
<path d="M5188 9955 c-2 -1 -50 -6 -108 -9 -58 -4 -118 -8 -135 -10 -16 -2
-64 -7 -105 -11 -41 -4 -78 -9 -81 -11 -4 -2 -26 -6 -50 -8 -57 -6 -88 -11
-239 -42 -384 -78 -759 -209 -1120 -392 -155 -79 -365 -199 -381 -218 -6 -8
-16 -14 -21 -14 -11 0 -161 -102 -166 -112 -2 -5 -10 -8 -18 -8 -8 0 -14 -4
-14 -8 0 -4 -14 -16 -30 -26 -37 -21 -279 -215 -335 -267 -22 -21 -51 -47 -65
-59 -77 -66 -270 -264 -352 -360 -25 -30 -65 -77 -88 -104 -263 -310 -539
-774 -702 -1181 -94 -235 -190 -535 -222 -699 -49 -242 -51 -257 -61 -339 -3
-23 -7 -52 -10 -65 -2 -13 -7 -51 -10 -85 -3 -34 -8 -82 -10 -107 -24 -238
-24 -615 0 -830 3 -25 7 -70 10 -100 2 -30 7 -73 10 -95 4 -22 11 -69 16 -105
101 -668 370 -1332 771 -1906 50 -71 94 -131 97 -134 4 -3 22 -25 41 -50 175
-229 461 -523 680 -700 30 -25 57 -47 60 -50 26 -31 467 -340 484 -340 3 0 29
-15 58 -34 29 -18 118 -68 198 -109 449 -235 954 -400 1425 -467 44 -6 94 -14
112 -16 17 -3 51 -7 75 -9 23 -2 86 -7 138 -12 180 -15 806 -7 864 12 6 2 34
6 61 9 226 23 548 93 795 170 99 32 281 96 325 116 11 5 61 26 110 46 209 87
521 257 745 406 90 61 345 250 360 267 3 3 34 31 70 61 225 191 460 440 651
690 413 540 717 1208 843 1855 31 158 35 179 41 230 3 22 7 51 10 65 2 14 7
54 11 90 3 36 7 83 10 105 22 216 21 668 -1 845 -3 25 -7 65 -9 90 -4 41 -9
86 -22 175 -70 483 -257 1041 -494 1471 -18 32 -43 77 -55 99 -89 162 -235
377 -379 560 -101 128 -93 118 -190 226 -222 247 -517 508 -766 679 -36 25
-69 49 -75 53 -102 81 -502 301 -715 394 -256 111 -597 224 -804 267 -103 22
-343 65 -391 71 -33 4 -70 9 -83 10 -13 2 -53 6 -90 10 -37 3 -87 8 -112 11
-49 5 -557 13 -562 9z m552 -558 c14 -3 61 -8 105 -12 44 -4 82 -8 85 -10 3
-1 32 -6 65 -9 33 -4 67 -9 75 -11 8 -2 31 -6 50 -9 207 -33 528 -125 779
-226 645 -257 1268 -731 1681 -1279 14 -18 35 -45 46 -59 29 -37 204 -299 204
-306 0 -3 17 -32 37 -63 136 -212 337 -698 409 -988 24 -95 54 -228 59 -255 3
-19 8 -47 11 -62 5 -26 9 -53 19 -133 3 -22 7 -51 10 -65 2 -14 7 -56 10 -94
32 -376 23 -704 -31 -1061 -39 -260 -135 -599 -247 -870 -238 -580 -596 -1076
-1092 -1515 -487 -430 -1200 -778 -1835 -896 -129 -24 -193 -35 -235 -39 -27
-3 -66 -7 -85 -10 -200 -28 -673 -28 -935 1 -27 3 -61 7 -73 10 -13 3 -43 7
-65 10 -242 30 -584 123 -864 235 -610 242 -1192 663 -1589 1147 -10 13 -28
33 -38 45 -10 12 -63 81 -116 152 -412 550 -682 1227 -755 1890 -4 33 -8 71
-11 85 -22 147 -22 660 0 801 3 13 7 51 10 84 7 61 11 94 21 168 10 68 43 224
70 332 14 55 27 108 30 117 15 62 121 361 160 453 55 130 187 395 215 435 11
15 20 31 20 34 0 3 28 49 61 103 196 312 446 609 718 853 46 41 89 80 95 85 6
6 31 26 56 45 25 19 47 37 50 40 12 15 205 153 295 212 274 179 589 332 905
439 104 36 338 101 400 113 14 2 47 9 74 16 53 12 284 48 351 55 22 2 78 7
125 10 47 4 86 8 88 10 5 5 555 -3 582 -8z"/>
<path d="M5089 7803 c-14 -36 -281 -761 -324 -878 -81 -224 -547 -1494 -560
-1525 -8 -19 -48 -129 -90 -245 -42 -115 -79 -219 -84 -230 -10 -23 -207 -559
-228 -620 -7 -22 -18 -49 -22 -60 -5 -11 -46 -121 -91 -245 -45 -124 -97 -265
-115 -315 -133 -360 -255 -694 -255 -699 0 -3 139 -6 309 -6 l309 0 5 23 c2
12 55 162 115 332 206 576 292 820 324 910 17 50 34 93 37 98 4 4 447 8 984
10 l976 2 76 -215 c42 -118 92 -260 112 -315 19 -55 55 -156 80 -225 25 -69
69 -192 98 -275 29 -82 68 -193 87 -245 l34 -95 307 -3 c169 -1 307 0 307 3 0
6 -156 438 -171 474 -6 14 -94 252 -195 530 -173 470 -319 870 -399 1086 -18
50 -83 227 -145 395 -61 168 -117 321 -125 340 -8 19 -64 172 -125 340 -62
168 -133 364 -160 435 -70 188 -307 834 -345 940 -18 50 -50 137 -72 195 l-40
105 -302 3 -301 2 -11 -27z m344 -785 c9 -24 38 -106 65 -183 27 -77 150 -421
272 -765 122 -344 246 -692 275 -775 29 -82 74 -208 99 -280 25 -71 46 -132
46 -135 0 -3 -355 -6 -790 -6 -434 0 -790 3 -790 6 0 3 29 86 64 185 35 99
105 297 156 440 50 143 95 269 100 280 5 11 101 283 215 605 257 729 234 670
255 670 11 0 23 -15 33 -42z"/>
</g>
</svg>
