<?xml version="1.0" standalone="no"?>
<!DOCTYPE svg PUBLIC "-//W3C//DTD SVG 20010904//EN"
 "http://www.w3.org/TR/2001/REC-SVG-20010904/DTD/svg10.dtd">
<svg version="1.0" xmlns="http://www.w3.org/2000/svg"
 width="512.000000pt" height="512.000000pt" viewBox="0 0 512.000000 512.000000"
 preserveAspectRatio="xMidYMid meet">
<metadata>
Created by potrace 1.14, written by Peter Selinger 2001-2017
</metadata>
<g transform="translate(0.000000,512.000000) scale(0.100000,-0.100000)"
fill="#000000" stroke="none">
<path d="M3200 4240 l0 -80 169 0 170 0 14 -52 c46 -166 109 -396 113 -413 2
-11 20 -76 39 -145 19 -68 31 -127 27 -131 -4 -4 -60 -19 -126 -35 -122 -30
-166 -54 -166 -92 0 -11 13 -64 29 -118 17 -55 27 -102 23 -106 -4 -4 -160
-52 -347 -108 -267 -80 -972 -290 -1056 -315 -11 -4 -23 12 -44 55 -16 33 -32
60 -37 60 -7 0 -128 -58 -136 -65 -2 -2 10 -29 26 -61 l29 -57 -100 -89 -100
-88 -31 25 c-172 142 -366 213 -581 213 -236 0 -447 -88 -616 -257 -111 -112
-184 -237 -230 -393 -29 -98 -35 -303 -12 -403 81 -364 366 -637 723 -693 78
-12 245 -9 318 7 377 79 673 413 697 786 2 33 1 33 115 35 52 2 67 -2 75 -16
43 -74 124 -125 203 -128 l47 -2 72 -134 c44 -84 80 -140 95 -147 15 -8 69
-13 151 -13 l127 0 0 80 0 79 -97 3 -98 3 -53 100 -53 100 28 50 c24 43 28 60
27 128 l0 78 255 207 c246 199 524 425 566 460 11 9 52 42 91 73 l71 57 20
-62 20 -62 -56 -29 c-240 -123 -407 -333 -477 -599 -20 -79 -23 -109 -20 -231
3 -116 8 -155 30 -228 102 -340 374 -583 721 -645 80 -14 277 -7 355 12 130
33 262 95 345 163 170 140 282 316 331 519 19 81 26 259 13 330 -5 27 -11 60
-14 74 -5 29 -35 116 -60 175 -51 120 -191 285 -310 366 -69 46 -175 98 -235
114 -3 1 -12 4 -20 8 -8 3 -46 12 -84 21 -70 15 -270 16 -332 1 -37 -8 -34
-14 -95 185 -53 174 -82 269 -107 348 -15 45 -17 64 -9 67 7 2 66 18 132 34
120 30 140 41 151 87 3 12 -51 228 -120 480 -104 383 -128 461 -148 476 -20
16 -47 18 -235 18 l-213 0 0 -80z m357 -1353 c10 -22 5 -28 -65 -83 -41 -32
-80 -64 -86 -69 -17 -16 -860 -700 -873 -708 -6 -4 -27 0 -47 8 -19 8 -53 15
-76 15 l-40 0 -110 222 c-61 123 -107 224 -103 225 13 4 835 251 978 293 72
21 189 57 260 79 72 22 135 40 141 40 6 1 16 -10 21 -22z m-1439 -688 c108
-217 110 -222 92 -241 -10 -11 -24 -32 -30 -48 -10 -25 -16 -27 -72 -29 -33
-1 -63 -2 -67 -3 -42 -5 -48 2 -69 87 -23 95 -61 186 -109 261 l-32 52 80 71
c44 39 84 71 88 71 4 0 58 -100 119 -221z m-834 96 c54 -17 166 -76 185 -98 9
-12 -2 -26 -56 -73 -38 -32 -84 -73 -103 -90 -19 -18 -84 -75 -145 -128 -60
-53 -113 -103 -118 -112 -14 -25 2 -83 27 -100 19 -12 46 -14 137 -10 63 3
193 8 291 11 l176 7 -8 -39 c-5 -21 -9 -38 -9 -38 7 0 -23 -77 -49 -127 -51
-99 -143 -188 -245 -237 -98 -48 -164 -61 -277 -56 -232 9 -425 159 -505 390
-21 60 -28 210 -14 280 6 28 28 87 50 132 70 147 215 262 376 299 71 16 218
11 287 -11z m2816 15 c195 -36 349 -164 426 -355 23 -58 28 -88 31 -170 1 -57
-3 -124 -10 -155 -49 -205 -225 -377 -430 -420 -341 -70 -660 179 -673 525 -2
50 2 113 7 140 18 83 82 204 141 265 59 62 148 124 159 113 4 -5 44 -127 88
-272 45 -145 89 -276 98 -292 19 -32 32 -35 138 -35 l80 1 0 80 0 79 -48 0
-47 0 -44 141 c-103 327 -109 347 -96 355 18 11 119 11 180 0z m-2472 -322
c18 -40 34 -85 36 -100 5 -27 4 -28 -47 -29 -29 0 -101 -2 -162 -5 l-110 -4
30 26 c17 15 63 56 103 92 80 72 104 91 113 92 4 0 20 -33 37 -72z"/>
<path d="M1945 3136 c-110 -30 -249 -66 -309 -82 -67 -17 -120 -37 -136 -51
-55 -46 -43 -135 22 -166 79 -37 193 -45 292 -20 73 18 104 33 272 134 140 84
163 110 149 166 -6 25 -39 63 -56 63 -4 0 -13 2 -21 4 -7 3 -103 -19 -213 -48z"/>
</g>
</svg>
