<?xml version="1.0" standalone="no"?>
<!DOCTYPE svg PUBLIC "-//W3C//DTD SVG 20010904//EN"
 "http://www.w3.org/TR/2001/REC-SVG-20010904/DTD/svg10.dtd">
<svg version="1.0" xmlns="http://www.w3.org/2000/svg"
 width="447.000000pt" height="447.000000pt" viewBox="0 0 447.000000 447.000000"
 preserveAspectRatio="xMidYMid meet">
<metadata>
Created by potrace 1.14, written by Peter Selinger 2001-2017
</metadata>
<g transform="translate(0.000000,447.000000) scale(0.100000,-0.100000)"
fill="#000000" stroke="none">
<path d="M1341 4353 c1 -106 17 -124 18 -20 1 52 -3 87 -9 87 -6 0 -10 -29 -9
-67z"/>
<path d="M1870 4360 c-33 -33 -19 -90 24 -90 48 0 73 61 38 93 -24 22 -38 21
-62 -3z"/>
<path d="M2017 4183 c-14 -13 -6 -53 12 -63 34 -18 67 30 39 58 -13 13 -41 16
-51 5z"/>
<path d="M1890 4125 c0 -8 5 -15 10 -15 6 0 10 7 10 15 0 8 -4 15 -10 15 -5 0
-10 -7 -10 -15z"/>
<path d="M2362 4098 c-7 -7 -12 -24 -12 -38 0 -31 17 -50 45 -50 28 0 45 19
45 50 0 31 -17 50 -45 50 -12 0 -26 -5 -33 -12z"/>
<path d="M2211 4024 c0 -11 3 -14 6 -6 3 7 2 16 -1 19 -3 4 -6 -2 -5 -13z"/>
<path d="M2500 4022 c0 -12 19 -26 26 -19 2 2 -2 10 -11 17 -9 8 -15 8 -15 2z"/>
<path d="M780 4015 c0 -4 13 -25 29 -48 15 -23 91 -144 168 -268 134 -216 164
-277 139 -281 -6 0 -16 -2 -22 -2 -24 -3 -44 -30 -44 -61 0 -27 6 -37 35 -55
29 -18 38 -20 51 -10 8 8 12 21 9 31 -5 13 -1 19 10 19 8 0 18 7 22 15 7 20
83 -100 83 -132 0 -13 9 -28 20 -35 25 -16 26 -40 2 -61 -27 -24 -34 -22 -97
29 -78 64 -84 46 -7 -22 34 -31 62 -60 62 -66 0 -16 -32 -79 -37 -74 -3 3 -15
1 -27 -3 -11 -5 -76 -6 -144 -2 -79 4 -121 3 -119 -4 2 -5 45 -11 95 -13 88
-3 92 -4 92 -25 0 -13 5 -28 12 -35 6 -6 9 -15 5 -19 -4 -4 -13 -1 -19 5 -15
15 -28 15 -28 2 0 -6 10 -15 23 -19 22 -9 22 -9 -6 -20 -16 -6 -33 -11 -38
-11 -5 0 -9 -4 -9 -9 0 -5 16 -4 35 2 29 9 39 8 51 -5 13 -13 14 -19 3 -36 -7
-11 -23 -25 -36 -31 -13 -6 -23 -17 -23 -25 0 -8 -5 -16 -11 -18 -15 -5 1 -38
20 -39 12 0 11 -3 -5 -11 -22 -10 -22 -10 -2 -30 19 -19 17 -59 -4 -67 -5 -1
-14 -9 -21 -15 -8 -9 -18 -10 -39 -2 -30 11 -51 0 -28 -14 11 -7 12 -10 2 -10
-8 0 -11 -7 -8 -17 7 -25 -244 -216 -287 -218 -28 -2 -47 -18 -47 -42 0 -12
-81 -81 -118 -102 -9 -5 -14 -13 -9 -17 4 -4 34 14 68 40 44 34 64 45 72 37
17 -17 52 -13 70 7 20 22 22 43 6 59 -9 9 -5 14 14 18 14 4 28 13 31 20 2 7
56 51 120 99 l115 86 52 -11 c28 -6 64 -8 80 -5 18 3 29 1 29 -5 0 -8 5 -8 15
1 23 19 37 2 15 -20 -24 -24 -25 -47 -6 -69 12 -14 12 -19 1 -35 -12 -16 -17
-17 -30 -6 -16 13 -21 11 -69 -33 -16 -14 -17 -20 -7 -30 10 -10 15 -8 27 7
18 25 24 18 24 -25 0 -74 -7 -121 -21 -130 -11 -6 -16 -1 -23 23 -7 23 -7 33
2 36 7 2 12 12 12 23 0 17 -11 24 -32 20 -5 0 -8 5 -8 13 0 25 -50 43 -95 33
-22 -4 -48 -8 -57 -8 -10 0 -18 -7 -18 -15 0 -14 -9 -17 -45 -15 -20 2 -20 1
-1 -14 14 -11 17 -18 9 -26 -8 -8 -13 -8 -17 0 -12 19 -55 12 -66 -10 -9 -16
-8 -26 5 -45 9 -14 20 -22 26 -18 6 3 21 3 35 0 29 -8 32 -35 8 -72 -25 -37
-4 -53 32 -25 32 25 44 27 44 6 0 -8 -9 -15 -20 -15 -15 0 -20 -7 -20 -25 0
-29 26 -35 33 -7 4 14 5 14 6 -3 0 -11 -8 -26 -19 -33 -16 -10 -18 -16 -10
-31 8 -16 7 -18 -12 -13 -13 3 -26 -1 -34 -13 -7 -10 -23 -23 -36 -29 -38 -19
-34 -44 9 -62 47 -20 51 -23 35 -32 -9 -6 -7 -17 6 -45 14 -30 22 -36 49 -37
17 0 34 -4 37 -8 3 -4 28 -14 55 -22 28 -7 51 -17 51 -20 0 -4 -8 -18 -19 -31
-10 -13 -21 -34 -25 -46 -4 -11 -13 -26 -21 -33 -11 -10 -11 -14 6 -31 28 -28
24 -104 -5 -93 -8 3 -17 -8 -23 -28 -6 -18 -11 -25 -12 -15 -1 9 -6 17 -12 17
-6 0 -9 -7 -5 -15 4 -10 -1 -15 -14 -15 -11 0 -20 -4 -20 -10 0 -5 7 -10 15
-10 21 0 19 -16 -4 -39 -37 -37 -55 -101 -33 -115 5 -3 7 -20 6 -38 -3 -28 -2
-29 4 -8 6 20 15 26 42 28 l35 2 -25 -15 c-25 -16 -25 -16 14 -10 33 6 38 4
32 -10 -3 -9 0 -26 8 -37 8 -11 12 -27 9 -34 -3 -9 2 -14 16 -14 12 0 21 -5
21 -11 0 -19 30 -41 47 -35 9 4 19 2 22 -3 10 -15 91 8 91 26 0 7 6 13 13 11
20 -4 57 13 57 26 0 6 -6 18 -12 24 -10 10 -10 15 2 22 11 7 16 5 18 -5 4 -18
28 -20 36 -2 3 6 3 2 1 -10 -9 -33 11 -36 34 -6 21 28 30 26 45 -12 5 -13 37
27 32 41 -2 6 5 10 17 9 26 -2 33 -21 16 -41 -10 -12 -9 -18 4 -32 13 -12 17
-13 17 -2 0 13 23 -5 91 -73 l29 -29 9 25 c13 34 53 45 174 47 41 1 60 6 64
16 3 9 13 12 25 8 14 -4 18 -3 13 6 -4 6 -17 9 -30 6 -22 -6 -23 -4 -18 33 3
21 1 47 -5 58 -6 11 -7 25 -2 33 7 12 16 8 44 -19 31 -30 35 -39 32 -77 -3
-46 9 -66 51 -78 48 -15 100 48 89 108 -8 40 1 49 28 31 28 -20 46 -19 46 4 0
28 21 31 53 7 l27 -20 -30 -27 c-16 -16 -30 -33 -30 -39 0 -6 -11 -22 -25 -36
-19 -19 -23 -29 -16 -38 6 -7 8 -34 5 -62 -5 -39 -3 -53 10 -63 9 -7 16 -26
16 -41 0 -47 23 -56 74 -27 26 14 42 19 40 12 -3 -7 4 -16 15 -20 22 -7 61 13
61 32 0 12 4 13 27 13 13 -1 1 -75 -13 -83 -10 -5 -14 -26 -14 -65 1 -43 3
-53 11 -40 5 10 16 15 24 12 8 -4 23 -3 33 2 22 9 28 11 48 13 8 0 12 6 9 11
-4 6 -11 8 -16 5 -5 -4 -9 3 -9 14 0 11 -6 26 -14 33 -10 9 -11 20 -4 40 13
36 28 36 29 1 1 -16 3 -21 6 -11 2 9 10 19 18 22 20 7 31 -15 13 -28 -22 -17
-10 -36 23 -36 36 0 37 -10 4 -38 -14 -13 -23 -27 -20 -32 8 -13 35 -13 35 0
0 6 5 10 12 10 9 0 9 -3 0 -12 -19 -19 -14 -38 14 -48 14 -6 28 -19 31 -30 7
-26 25 -26 41 0 11 18 16 19 35 8 12 -6 32 -12 45 -13 13 0 27 -7 32 -14 5 -8
17 -12 30 -8 19 5 21 3 15 -21 -5 -22 -4 -25 6 -14 18 17 49 15 49 -3 0 -25
-39 -39 -66 -24 -31 16 -41 5 -27 -31 9 -24 9 -30 -2 -30 -20 0 -25 -48 -6
-53 13 -4 13 -5 1 -6 -8 -1 -26 -17 -40 -37 -13 -20 -26 -31 -28 -25 -6 18
-20 13 -27 -10 l-7 -21 -15 21 c-15 22 -67 29 -78 10 -4 -6 -13 -8 -21 -5 -9
4 -14 -2 -14 -15 0 -11 -5 -29 -10 -40 -7 -13 -7 -19 0 -19 5 0 10 -6 10 -13
0 -23 34 -47 61 -42 13 2 43 25 67 51 23 25 42 43 42 39 0 -4 12 1 28 10 l27
18 -19 -21 c-20 -23 -9 -31 12 -10 7 7 12 8 12 2 0 -5 -5 -15 -10 -20 -8 -8
-7 -19 1 -37 10 -22 9 -31 -5 -52 -10 -15 -16 -31 -13 -38 2 -6 12 3 22 21 13
22 25 30 36 27 10 -3 20 -1 24 5 4 7 16 1 33 -16 l27 -26 8 38 c4 22 14 44 23
51 8 6 14 17 13 25 -3 26 1 37 19 42 12 4 22 23 29 52 10 42 9 47 -8 51 -15 4
-16 9 -9 24 20 36 45 41 84 14 28 -19 36 -21 36 -9 0 8 5 12 11 9 5 -4 23 7
39 24 24 25 28 36 24 61 -5 25 -3 30 12 31 17 0 16 2 -3 11 -13 6 -23 18 -23
26 0 11 3 12 13 3 8 -6 17 -8 20 -4 4 3 7 1 7 -6 0 -19 62 -3 83 21 16 19 19
19 42 4 36 -24 40 -19 7 9 -19 15 -31 38 -35 61 -6 33 -46 84 -66 84 -5 0 -12
11 -15 25 -10 39 -56 25 -56 -17 0 -10 -10 -20 -25 -24 -26 -6 -33 -20 -14
-26 9 -3 9 -9 1 -24 -16 -31 -72 -21 -72 12 0 22 -3 23 -20 14 -11 -6 -20 -17
-20 -25 0 -8 -7 -15 -15 -15 -8 0 -15 6 -15 14 0 8 -6 16 -12 19 -9 3 -6 11
10 24 12 11 22 28 22 37 0 17 10 21 26 8 5 -5 21 -13 36 -20 23 -10 26 -9 21
5 -5 12 -1 14 15 9 16 -5 22 -2 28 16 3 13 12 26 18 30 6 4 12 12 12 18 1 5 3
11 4 13 1 1 4 26 5 55 3 43 0 54 -16 62 -25 14 -24 28 3 57 21 23 21 23 1 23
-11 0 -28 -9 -38 -20 -11 -13 -31 -20 -53 -20 -18 0 -47 -9 -63 -21 l-29 -20
0 29 c0 21 7 32 25 40 14 6 25 18 25 26 0 8 6 16 13 19 8 3 6 13 -10 35 -29
39 -29 40 2 34 20 -3 25 0 25 16 0 18 6 21 39 20 41 0 104 29 94 45 -3 4 4 11
16 14 22 6 27 18 11 28 -15 9 0 35 22 35 11 0 16 4 13 11 -4 6 3 21 14 33 14
15 19 29 15 41 -6 15 -4 17 15 12 16 -4 30 2 50 24 16 16 32 29 38 29 5 0 17
19 28 43 10 23 22 45 27 48 5 3 4 17 -1 32 -12 30 -6 53 15 61 25 10 16 27
-11 20 -19 -5 -25 -2 -25 9 0 21 -52 71 -89 87 -31 12 -39 24 -23 34 5 3 7 19
4 37 -3 19 0 34 8 39 10 6 10 15 -1 43 -12 33 -11 37 16 69 15 18 31 32 34 30
3 -2 7 1 9 7 2 6 -5 11 -16 11 -15 0 -19 5 -15 20 3 11 11 20 19 20 7 0 17 7
22 16 9 16 12 16 42 1 18 -9 36 -15 39 -12 4 2 7 -6 7 -18 -1 -17 5 -22 24
-22 32 0 41 34 11 42 -25 6 -28 28 -6 37 9 3 15 14 13 23 -4 23 28 29 48 9 18
-19 47 -20 76 -5 17 9 25 6 47 -15 27 -26 30 -26 95 -17 37 5 74 15 82 22 11
9 14 8 14 -5 0 -9 16 -33 36 -53 31 -31 35 -41 31 -69 -3 -19 -2 -34 2 -34 11
0 34 29 51 62 9 19 24 30 46 34 18 3 38 12 45 20 6 8 16 11 22 7 7 -4 8 0 3
12 -11 29 15 73 47 79 16 3 33 3 38 0 5 -3 9 1 9 10 0 8 4 16 10 18 5 2 11 12
13 23 2 11 7 28 12 38 11 25 -2 65 -25 77 -25 13 -88 -17 -119 -56 -20 -25
-22 -26 -34 -10 -12 16 -15 16 -42 1 -22 -11 -44 -14 -83 -9 -52 6 -53 6 -42
-13 10 -16 10 -24 -5 -46 -14 -22 -20 -25 -37 -16 -11 6 -26 8 -34 5 -9 -3
-14 1 -14 14 0 13 -7 20 -20 20 -21 0 -27 -24 -9 -36 8 -5 6 -10 -5 -16 -11
-6 -28 -3 -51 8 -19 9 -42 14 -50 10 -8 -3 -15 -1 -15 3 0 5 7 11 15 15 20 7
19 35 -1 43 -18 7 -36 -15 -29 -34 3 -10 0 -10 -14 -1 -25 15 -16 42 20 55 19
8 35 23 42 42 8 23 16 29 29 25 50 -16 91 41 66 93 -10 21 -21 29 -45 31 -29
3 -31 5 -23 27 5 12 6 26 3 29 -4 3 -1 6 5 6 8 0 8 8 0 30 -5 17 -8 39 -5 50
3 11 -1 24 -8 30 -8 6 -11 18 -8 26 6 17 -28 19 -45 2 -6 -6 -15 -9 -19 -5 -4
4 -1 13 5 19 16 16 15 31 0 22 -11 -7 -34 -9 -70 -5 -7 1 -22 8 -32 16 -16 12
-17 17 -6 30 10 12 10 19 2 27 -8 8 -13 6 -19 -8 -4 -10 -14 -27 -23 -37 -16
-16 -17 -16 -16 5 1 16 -5 24 -20 26 -30 4 -38 -24 -12 -42 19 -14 20 -16 5
-22 -9 -3 -17 -12 -17 -19 0 -7 -9 -23 -19 -36 l-19 -24 -7 28 c-7 26 -25 38
-25 17 0 -5 -9 -10 -20 -10 -16 0 -20 -7 -20 -35 0 -27 -8 -43 -30 -65 -35
-34 -45 -37 -54 -14 -10 27 -7 34 18 34 36 0 51 24 39 63 -8 27 -14 32 -36 30
-15 -1 -27 2 -27 8 0 5 0 12 -1 17 -1 11 -31 42 -41 42 -5 0 -16 6 -24 14 -12
13 -12 19 3 50 10 20 23 34 30 31 9 -3 10 2 3 19 -13 35 -6 104 12 118 20 17
52 103 45 122 -4 9 -2 18 4 22 14 8 1 45 -29 76 l-25 27 41 38 c29 26 42 47
42 64 0 15 9 38 20 52 29 37 27 84 -6 99 -24 11 -28 9 -53 -20 -14 -18 -31
-32 -38 -32 -6 0 -20 -14 -31 -31 -10 -17 -30 -36 -43 -43 -17 -8 -25 -22 -29
-51 -4 -31 -10 -40 -28 -45 -13 -3 -29 -15 -35 -26 -10 -17 -17 -20 -34 -13
-27 10 -30 50 -8 89 18 32 18 40 1 40 -8 0 -24 22 -37 49 -22 45 -69 87 -69
61 0 -19 -17 -10 -28 14 -9 20 -17 24 -43 21 -18 -3 -46 2 -62 10 -37 18 -54
9 -31 -16 9 -10 15 -20 13 -20 -36 -10 -62 -6 -66 12 -3 10 -11 19 -19 19 -21
0 -31 29 -24 74 3 23 4 48 2 54 -5 17 -32 15 -38 -3 -5 -13 -10 -12 -34 5 -16
11 -44 20 -64 20 -25 0 -36 5 -36 15 0 22 -65 49 -102 41 -42 -8 -56 6 -52 55
6 69 -25 98 -68 65 -33 -25 -20 -86 18 -86 13 0 24 -4 24 -9 0 -15 -18 -23
-25 -11 -3 5 -17 7 -31 4 -18 -5 -24 -2 -24 10 0 9 -4 16 -10 16 -5 0 -10 -7
-10 -15 0 -8 -16 -22 -36 -31 -30 -15 -37 -15 -45 -3 -4 8 -14 14 -21 14 -23
2 -68 17 -68 24 0 3 -11 6 -25 6 -14 0 -25 -3 -25 -7 0 -5 -5 -8 -11 -8 -12 0
-48 -37 -50 -52 -7 -43 -2 -88 9 -88 14 0 15 -10 3 -44 -8 -18 -15 -23 -31
-19 -16 4 -23 0 -27 -16 -5 -22 -37 -29 -48 -11 -10 17 -25 11 -25 -9 0 -11
-5 -23 -10 -26 -6 -4 -8 -15 -5 -26 5 -14 2 -17 -9 -13 -23 9 -39 -5 -25 -22
6 -7 9 -21 5 -29 -7 -20 -36 -19 -36 1 0 13 -6 15 -27 9 -15 -3 -31 -11 -34
-17 -12 -20 3 -39 27 -36 24 3 28 -4 18 -34 -7 -24 -20 -23 -27 2 -6 22 -28
19 -59 -7 -20 -18 -32 -2 -24 30 3 12 1 29 -4 37 -9 13 -10 13 -11 0 -1 -8 -1
-21 0 -27 1 -7 -5 -13 -12 -13 -26 0 -42 -29 -29 -51 10 -16 9 -19 -3 -19 -8
0 -15 -7 -15 -16 0 -8 -5 -12 -11 -8 -8 4 -8 9 0 17 6 6 11 15 11 21 0 5 -3 6
-7 3 -4 -4 -19 4 -34 19 -18 18 -25 32 -21 47 4 18 2 20 -9 10 -7 -7 -23 -13
-36 -13 -27 0 -31 -25 -7 -58 18 -26 16 -27 -22 -7 -32 15 -73 77 -350 519
-84 136 -158 242 -167 244 -9 2 -17 1 -17 -3z m1550 -419 c0 -3 -4 -8 -10 -11
-5 -3 -10 -1 -10 4 0 6 5 11 10 11 6 0 10 -2 10 -4z m-970 -391 c-7 -9 -15
-13 -17 -11 -7 7 7 26 19 26 6 0 6 -6 -2 -15z m1601 -106 c20 -20 20 -22 3
-40 -9 -10 -23 -19 -30 -19 -7 0 -20 -9 -28 -21 -8 -12 -19 -18 -26 -14 -8 5
-6 12 6 26 16 17 16 19 0 25 -10 4 -25 -1 -36 -11 -38 -35 -33 -4 5 35 44 45
74 51 106 19z m-1801 -143 c0 -3 -4 -8 -10 -11 -5 -3 -10 -1 -10 4 0 6 5 11
10 11 6 0 10 -2 10 -4z m-60 -391 c0 -8 -7 -15 -15 -15 -8 0 -15 -4 -15 -10 0
-5 5 -10 12 -10 6 0 9 -2 7 -5 -3 -2 -15 -2 -28 2 l-23 6 29 23 c34 28 33 28
33 9z m165 -85 c8 -13 -5 -13 -25 0 -13 8 -13 10 2 10 9 0 20 -4 23 -10z m31
-96 c4 -15 1 -36 -7 -51 l-13 -25 -17 21 c-10 12 -24 21 -33 21 -9 0 -16 7
-16 15 0 9 9 15 25 15 14 0 28 7 31 15 9 23 23 18 30 -11z m2207 -110 l17 -35
-25 18 c-13 10 -25 21 -25 26 0 4 -6 7 -14 7 -8 0 -18 5 -21 10 -4 6 6 10 22
10 22 0 32 -8 46 -36z m-2413 -163 c0 -12 -49 -35 -57 -28 -10 11 27 46 43 40
8 -3 14 -8 14 -12z m-75 -81 c3 -34 0 -36 -21 -15 -12 11 -13 19 -4 36 14 25
22 19 25 -21z m575 -534 c0 -24 -17 -28 -23 -6 -3 13 0 20 9 20 8 0 14 -6 14
-14z m48 -108 c-6 -16 -60 -30 -71 -19 -16 16 3 31 39 31 23 0 34 -4 32 -12z
m26 -60 c-9 -14 -34 -9 -41 8 -9 23 18 36 33 16 7 -9 10 -20 8 -24z m586 -203
c0 -8 -4 -15 -10 -15 -5 0 -10 7 -10 15 0 8 5 15 10 15 6 0 10 -7 10 -15z
m270 -349 c0 -3 -4 -8 -10 -11 -5 -3 -10 -1 -10 4 0 6 5 11 10 11 6 0 10 -2
10 -4z m350 -260 c0 -14 5 -28 10 -31 6 -4 7 -11 4 -17 -4 -6 0 -14 7 -19 7
-4 11 -10 9 -13 -12 -11 -52 37 -57 69 -4 28 -2 35 11 35 10 0 16 -9 16 -24z"/>
<path d="M1625 4010 c-19 -7 -19 -8 -2 -15 10 -4 23 -3 29 3 14 14 -3 21 -27
12z"/>
<path d="M2127 3986 c-9 -22 18 -40 33 -22 6 9 9 20 5 26 -9 15 -32 12 -38 -4z"/>
<path d="M1990 3975 c0 -8 7 -15 15 -15 8 0 15 7 15 15 0 8 -7 15 -15 15 -8 0
-15 -7 -15 -15z"/>
<path d="M2772 3948 c-7 -7 -12 -18 -12 -25 0 -15 30 -32 48 -26 17 7 15 50
-4 57 -20 8 -18 8 -32 -6z"/>
<path d="M2305 3922 c-12 -13 -3 -28 25 -40 36 -16 54 -8 40 17 -9 18 -54 34
-65 23z"/>
<path d="M3041 3910 c-19 -11 -9 -45 14 -45 13 0 21 8 23 21 3 23 -17 37 -37
24z"/>
<path d="M2617 3889 c8 -8 27 -8 64 -1 l54 10 -64 1 c-47 1 -62 -2 -54 -10z"/>
<path d="M776 3861 c-4 -5 3 -15 15 -21 18 -10 20 -9 17 6 -4 20 -23 30 -32
15z"/>
<path d="M2575 3852 c-13 -13 -1 -22 44 -36 55 -16 101 -43 101 -59 0 -5 -8
-15 -17 -22 -15 -11 -15 -17 -5 -39 6 -14 19 -26 27 -26 10 0 15 -7 14 -17 -3
-33 1 -42 20 -53 16 -8 26 -5 50 16 17 14 31 33 32 42 0 12 3 9 10 -7 7 -18
14 -22 32 -17 12 3 29 6 37 6 9 0 24 13 33 30 16 26 16 32 3 65 -13 31 -19 35
-51 35 -28 0 -38 5 -42 20 -3 11 -12 20 -19 20 -8 0 -14 4 -14 10 0 5 -7 7
-15 4 -8 -4 -15 -1 -15 5 0 18 -25 13 -46 -10 -22 -24 -50 -21 -124 14 -28 13
-52 22 -55 19z"/>
<path d="M2066 3822 c-3 -6 -1 -14 5 -17 15 -10 25 3 12 16 -7 7 -13 7 -17 1z"/>
<path d="M2110 3820 c-13 -8 -12 -10 3 -10 9 0 17 5 17 10 0 12 -1 12 -20 0z"/>
<path d="M1771 3736 c-7 -8 -11 -27 -9 -43 2 -22 9 -29 30 -31 22 -3 30 2 38
23 13 33 13 31 -6 49 -19 20 -38 20 -53 2z"/>
<path d="M3240 3685 c0 -8 5 -15 10 -15 6 0 10 7 10 15 0 8 -4 15 -10 15 -5 0
-10 -7 -10 -15z"/>
<path d="M3035 3680 c-3 -5 -1 -10 4 -10 6 0 11 5 11 10 0 6 -2 10 -4 10 -3 0
-8 -4 -11 -10z"/>
<path d="M1526 3643 c-10 -10 -7 -171 4 -178 6 -3 8 -16 5 -28 -3 -12 1 -31 8
-42 13 -16 17 -17 31 -6 22 18 20 48 -4 63 -18 11 -20 24 -20 100 0 80 -7 107
-24 91z"/>
<path d="M1402 3628 c-7 -7 -12 -30 -12 -52 1 -47 14 -33 24 27 7 40 6 43 -12
25z"/>
<path d="M1770 3620 c0 -5 5 -10 11 -10 5 0 7 5 4 10 -3 6 -8 10 -11 10 -2 0
-4 -4 -4 -10z"/>
<path d="M3260 3580 c0 -5 5 -10 10 -10 6 0 10 5 10 10 0 6 -4 10 -10 10 -5 0
-10 -4 -10 -10z"/>
<path d="M1274 3545 c-3 -14 -4 -28 -1 -31 10 -10 27 7 27 26 0 30 -19 33 -26
5z"/>
<path d="M2952 3518 c-16 -16 -15 -33 2 -47 22 -18 48 -2 44 28 -3 28 -27 38
-46 19z"/>
<path d="M847 3504 c-14 -14 -7 -35 11 -32 9 2 17 10 17 17 0 16 -18 25 -28
15z"/>
<path d="M724 3470 c-53 -21 -70 -91 -31 -128 28 -26 88 -30 111 -6 46 46 44
93 -7 124 -35 22 -42 23 -73 10z"/>
<path d="M1463 3438 c-13 -17 -17 -108 -5 -108 9 0 32 74 32 104 0 19 -14 21
-27 4z"/>
<path d="M1391 3423 c-1 -12 -6 -23 -11 -25 -7 -2 -5 -11 4 -23 12 -16 16 -17
30 -6 20 17 21 51 2 51 -8 0 -17 6 -19 13 -3 6 -6 2 -6 -10z"/>
<path d="M1297 3364 c-8 -8 1 -24 14 -24 5 0 9 7 9 15 0 15 -12 20 -23 9z"/>
<path d="M3000 3326 c0 -9 5 -16 10 -16 6 0 10 4 10 9 0 6 -4 13 -10 16 -5 3
-10 -1 -10 -9z"/>
<path d="M3320 3240 c0 -13 5 -20 13 -17 6 2 12 10 12 17 0 7 -6 15 -12 18 -8
2 -13 -5 -13 -18z"/>
<path d="M1170 3235 c0 -8 7 -15 15 -15 8 0 15 7 15 15 0 8 -7 15 -15 15 -8 0
-15 -7 -15 -15z"/>
<path d="M814 3225 c-4 -9 -2 -21 4 -27 15 -15 44 -1 40 19 -4 23 -36 29 -44
8z"/>
<path d="M3237 3215 c-10 -14 -14 -25 -9 -25 6 0 17 11 26 25 21 32 7 32 -17
0z"/>
<path d="M1065 3180 c3 -5 11 -10 16 -10 6 0 7 5 4 10 -3 6 -11 10 -16 10 -6
0 -7 -4 -4 -10z"/>
<path d="M1080 3106 c0 -16 27 -29 41 -20 13 8 -9 34 -27 34 -8 0 -14 -6 -14
-14z"/>
<path d="M3701 2991 c-8 -17 -11 -34 -8 -38 8 -7 29 46 24 60 -2 6 -9 -4 -16
-22z"/>
<path d="M555 2963 c-33 -8 -47 -24 -34 -39 8 -10 43 -13 132 -12 67 0 148 -5
180 -11 77 -16 118 -11 62 8 -70 24 -65 33 15 26 108 -9 120 -12 113 -31 -4
-12 -2 -15 8 -12 17 6 22 28 11 45 -13 20 -136 33 -307 32 -88 -1 -169 -4
-180 -6z"/>
<path d="M3200 2925 c-12 -15 -10 -52 3 -47 4 1 16 2 26 2 27 0 36 31 15 47
-23 17 -29 16 -44 -2z"/>
<path d="M3302 2848 c-30 -30 -5 -37 29 -8 23 19 23 19 4 20 -12 0 -26 -5 -33
-12z"/>
<path d="M710 2841 c0 -13 29 -35 37 -28 7 8 -15 37 -28 37 -5 0 -9 -4 -9 -9z"/>
<path d="M3563 2833 c-7 -2 -13 -9 -13 -15 0 -5 -7 -16 -15 -25 -12 -12 -13
-18 -4 -29 10 -12 16 -9 40 17 22 25 26 35 18 46 -6 7 -12 13 -13 12 0 0 -7
-3 -13 -6z"/>
<path d="M3689 2812 c-30 -38 -23 -101 13 -122 25 -14 31 -13 63 4 42 23 57
74 34 115 -21 38 -81 39 -110 3z"/>
<path d="M978 2823 c7 -3 16 -2 19 1 4 3 -2 6 -13 5 -11 0 -14 -3 -6 -6z"/>
<path d="M3247 2823 c-4 -3 -7 -11 -7 -17 0 -6 5 -5 12 2 6 6 9 14 7 17 -3 3
-9 2 -12 -2z"/>
<path d="M3225 2740 c3 -5 14 -10 25 -10 10 0 20 -7 24 -15 8 -21 36 -19 36 3
0 25 -11 34 -26 21 -8 -7 -14 -7 -19 1 -3 5 -15 10 -26 10 -11 0 -17 -4 -14
-10z"/>
<path d="M970 2715 c0 -9 64 -34 73 -28 16 9 -16 33 -44 33 -16 0 -29 -2 -29
-5z"/>
<path d="M4355 2690 c-11 -4 -23 -6 -27 -4 -9 6 -44 -45 -51 -75 -8 -33 16
-88 42 -96 32 -10 86 12 101 41 36 67 -7 156 -65 134z"/>
<path d="M4143 2639 c-16 -16 -5 -39 19 -39 14 0 19 6 16 22 -4 25 -19 33 -35
17z"/>
<path d="M764 2628 c-3 -5 6 -8 20 -8 14 0 28 4 31 10 4 6 -5 9 -20 8 -15 -2
-29 -6 -31 -10z"/>
<path d="M3790 2529 c0 -5 5 -7 10 -4 6 3 10 8 10 11 0 2 -4 4 -10 4 -5 0 -10
-5 -10 -11z"/>
<path d="M400 2465 c0 -8 5 -15 10 -15 6 0 10 7 10 15 0 8 -4 15 -10 15 -5 0
-10 -7 -10 -15z"/>
<path d="M1030 2411 c0 -11 4 -22 8 -25 14 -9 35 12 29 28 -9 23 -37 20 -37
-3z"/>
<path d="M1115 2390 c-4 -6 -3 -16 3 -22 6 -6 12 -6 17 2 4 6 3 16 -3 22 -6 6
-12 6 -17 -2z"/>
<path d="M1036 2353 c-6 -14 8 -32 24 -33 5 0 40 37 40 43 0 1 -13 3 -29 4
-19 1 -31 -4 -35 -14z"/>
<path d="M20 2310 c0 -5 5 -10 11 -10 5 0 7 5 4 10 -3 6 -8 10 -11 10 -2 0 -4
-4 -4 -10z"/>
<path d="M3674 2285 c-7 -18 3 -35 21 -35 18 0 26 25 12 39 -15 15 -27 14 -33
-4z"/>
<path d="M104 2276 c-7 -19 3 -36 22 -36 10 0 14 8 12 22 -4 26 -26 36 -34 14z"/>
<path d="M4352 2258 c5 -15 28 -18 29 -3 0 6 -7 12 -17 13 -10 3 -15 -1 -12
-10z"/>
<path d="M4253 2245 c-26 -18 -30 -87 -6 -110 18 -18 24 -19 46 -2 15 10 17
22 11 70 -7 60 -15 67 -51 42z"/>
<path d="M4124 2133 c-22 -4 -44 -40 -44 -72 0 -29 39 -71 65 -71 60 0 115 41
115 86 0 53 -49 74 -136 57z"/>
<path d="M490 2041 c0 -24 25 -34 40 -16 15 18 5 35 -21 35 -12 0 -19 -7 -19
-19z"/>
<path d="M3715 2050 c-3 -5 -1 -10 4 -10 6 0 11 5 11 10 0 6 -2 10 -4 10 -3 0
-8 -4 -11 -10z"/>
<path d="M3510 2040 c0 -5 5 -10 10 -10 6 0 10 5 10 10 0 6 -4 10 -10 10 -5 0
-10 -4 -10 -10z"/>
<path d="M4020 2040 c0 -5 5 -10 10 -10 6 0 10 5 10 10 0 6 -4 10 -10 10 -5 0
-10 -4 -10 -10z"/>
<path d="M770 2020 c0 -11 5 -20 10 -20 6 0 10 -7 10 -16 0 -9 6 -14 13 -11
11 4 12 24 2 55 -7 20 -35 14 -35 -8z"/>
<path d="M3755 2030 c-4 -7 -3 -16 3 -22 14 -14 45 -2 40 15 -6 16 -34 21 -43
7z"/>
<path d="M3505 2010 c-7 -11 21 -50 37 -50 15 0 8 27 -11 44 -13 12 -21 14
-26 6z"/>
<path d="M710 1992 c-59 -9 -80 -67 -35 -96 30 -19 25 -36 -11 -36 -13 0 -24
-4 -24 -9 0 -14 -60 -22 -82 -10 -29 15 -67 -7 -85 -49 -10 -23 -19 -32 -31
-28 -46 12 -112 17 -112 7 0 -6 -9 -20 -20 -31 -19 -19 -19 -20 8 -61 15 -23
27 -46 27 -53 0 -6 11 -11 25 -11 22 0 25 -5 26 -35 0 -31 3 -35 28 -35 15 -1
30 3 32 7 3 4 -4 8 -15 8 -12 0 -21 3 -21 8 0 18 32 51 53 54 18 2 23 10 25
44 2 27 -2 45 -13 54 -25 20 -18 32 15 25 20 -4 37 -2 47 7 14 11 15 11 11 -2
-6 -17 8 -50 22 -50 11 0 40 29 40 40 0 5 -12 16 -27 24 l-28 15 41 1 c27 0
44 -5 47 -14 7 -19 85 -26 92 -8 7 18 -5 86 -16 90 -20 8 -7 31 21 37 34 7 48
41 31 73 -6 11 -7 23 -3 27 4 5 0 6 -9 2 -9 -3 -20 -2 -25 2 -5 4 -20 5 -34 3z"/>
<path d="M606 1973 c-11 -11 -6 -23 9 -23 8 0 15 4 15 9 0 13 -16 22 -24 14z"/>
<path d="M3360 1973 c0 -5 7 -18 15 -29 15 -18 15 -18 13 5 -3 23 -28 44 -28
24z"/>
<path d="M3705 1950 c-3 -5 -1 -10 4 -10 6 0 11 5 11 10 0 6 -2 10 -4 10 -3 0
-8 -4 -11 -10z"/>
<path d="M3526 1891 c-4 -5 -2 -12 3 -15 5 -4 12 -2 15 3 4 5 2 12 -3 15 -5 4
-12 2 -15 -3z"/>
<path d="M3522 1828 c-17 -17 -15 -38 3 -38 12 0 35 28 35 44 0 11 -26 6 -38
-6z"/>
<path d="M3400 1816 c0 -7 -10 -21 -22 -29 -17 -12 -19 -16 -8 -16 9 -1 31 12
50 29 l35 29 -27 1 c-17 0 -28 -5 -28 -14z"/>
<path d="M820 1779 c0 -5 5 -7 10 -4 6 3 10 8 10 11 0 2 -4 4 -10 4 -5 0 -10
-5 -10 -11z"/>
<path d="M3615 1779 c-4 -6 -5 -13 -2 -16 7 -7 27 6 27 18 0 12 -17 12 -25 -2z"/>
<path d="M3745 1750 c3 -5 8 -10 11 -10 2 0 4 5 4 10 0 6 -5 10 -11 10 -5 0
-7 -4 -4 -10z"/>
<path d="M3680 1710 c-8 -5 -11 -12 -8 -16 10 -9 38 3 38 16 0 12 -10 13 -30
0z"/>
<path d="M756 1687 c-11 -8 -15 -16 -10 -20 15 -9 65 5 61 17 -6 17 -30 18
-51 3z"/>
<path d="M676 1645 c3 -14 1 -31 -5 -38 -6 -8 -7 -25 -2 -42 5 -22 16 -32 41
-39 25 -7 35 -7 38 2 2 7 12 12 22 12 21 0 33 38 24 74 -6 25 -33 40 -92 50
-30 5 -32 4 -26 -19z"/>
<path d="M3614 1655 c-12 -9 -14 -14 -6 -15 7 0 20 7 28 15 20 19 4 20 -22 0z"/>
<path d="M840 1650 c0 -5 5 -10 10 -10 6 0 10 5 10 10 0 6 -4 10 -10 10 -5 0
-10 -4 -10 -10z"/>
<path d="M3479 1644 c-11 -14 -10 -15 11 -12 13 1 25 9 28 16 5 17 -23 15 -39
-4z"/>
<path d="M611 1623 c0 -25 1 -26 9 -8 12 27 12 35 0 35 -5 0 -10 -12 -9 -27z"/>
<path d="M955 1640 c-3 -5 1 -10 9 -10 9 0 16 5 16 10 0 6 -4 10 -9 10 -6 0
-13 -4 -16 -10z"/>
<path d="M3398 1629 c-27 -15 -22 -29 10 -29 34 0 57 14 48 29 -9 14 -35 14
-58 0z"/>
<path d="M863 1623 c9 -2 23 -2 30 0 6 3 -1 5 -18 5 -16 0 -22 -2 -12 -5z"/>
<path d="M320 1575 c-10 -12 -10 -15 4 -15 9 0 16 7 16 15 0 8 -2 15 -4 15 -2
0 -9 -7 -16 -15z"/>
<path d="M930 1570 c0 -6 7 -10 15 -10 8 0 15 2 15 4 0 2 -7 6 -15 10 -8 3
-15 1 -15 -4z"/>
<path d="M896 1508 c-20 -28 -20 -38 -1 -38 20 0 57 38 50 50 -10 17 -33 11
-49 -12z"/>
<path d="M460 1490 c0 -5 5 -10 11 -10 5 0 7 5 4 10 -3 6 -8 10 -11 10 -2 0
-4 -4 -4 -10z"/>
<path d="M767 1465 c-15 -14 -27 -29 -27 -34 0 -4 -20 -22 -45 -41 -45 -34
-56 -50 -32 -50 14 0 110 99 127 130 14 26 10 25 -23 -5z"/>
<path d="M3293 1409 c-6 -6 -22 -17 -35 -23 -17 -9 -22 -19 -20 -39 2 -23 -3
-30 -28 -40 -17 -8 -28 -16 -25 -18 2 -3 1 -18 -4 -35 -4 -16 -4 -36 0 -44 4
-8 13 -29 19 -47 13 -35 60 -63 100 -58 14 1 30 3 36 4 23 2 62 50 65 77 5 54
-12 105 -41 122 -27 17 -27 19 -3 68 9 16 7 23 -8 32 -24 15 -42 15 -56 1z"/>
<path d="M825 1399 c-4 -6 -5 -13 -2 -16 7 -7 27 6 27 18 0 12 -17 12 -25 -2z"/>
<path d="M3495 1400 c3 -5 8 -10 11 -10 2 0 4 5 4 10 0 6 -5 10 -11 10 -5 0
-7 -4 -4 -10z"/>
<path d="M890 1320 c0 -5 7 -10 16 -10 8 0 12 5 9 10 -3 6 -10 10 -16 10 -5 0
-9 -4 -9 -10z"/>
<path d="M340 1300 c0 -5 5 -10 10 -10 6 0 10 5 10 10 0 6 -4 10 -10 10 -5 0
-10 -4 -10 -10z"/>
<path d="M708 1282 c-10 -2 -18 -8 -18 -13 0 -13 27 -11 35 2 9 13 4 16 -17
11z"/>
<path d="M635 1200 c4 -6 11 -8 16 -5 14 9 11 15 -7 15 -8 0 -12 -5 -9 -10z"/>
<path d="M760 1186 c-15 -20 -9 -56 12 -70 20 -12 58 16 58 44 0 36 -46 53
-70 26z"/>
<path d="M3006 1131 c-4 -7 -5 -15 -2 -18 9 -9 19 4 14 18 -4 11 -6 11 -12 0z"/>
<path d="M880 1088 c0 -29 -8 -40 -42 -57 -16 -8 -33 -29 -40 -47 -6 -18 -22
-37 -34 -43 -31 -14 -41 -57 -23 -90 19 -33 55 -38 82 -13 32 29 60 32 74 7
12 -20 12 -20 13 3 0 12 4 22 10 22 17 0 38 43 45 91 l7 45 -45 19 c-43 17
-45 20 -40 52 3 18 3 33 -1 33 -3 0 -6 -10 -6 -22z"/>
<path d="M3180 1094 c0 -8 5 -12 10 -9 6 3 10 10 10 16 0 5 -4 9 -10 9 -5 0
-10 -7 -10 -16z"/>
<path d="M2995 1084 c-18 -13 -18 -16 -3 -30 19 -19 38 -11 38 16 0 26 -12 31
-35 14z"/>
<path d="M3116 1093 c-3 -3 -6 -10 -6 -15 0 -12 50 -6 53 6 2 11 -37 18 -47 9z"/>
<path d="M1400 1045 c-6 -8 -9 -19 -5 -24 8 -13 45 9 45 26 0 18 -25 16 -40
-2z"/>
<path d="M3218 1053 c7 -3 16 -2 19 1 4 3 -2 6 -13 5 -11 0 -14 -3 -6 -6z"/>
<path d="M3340 1030 c0 -5 5 -10 11 -10 5 0 7 5 4 10 -3 6 -8 10 -11 10 -2 0
-4 -4 -4 -10z"/>
<path d="M1916 1021 c-4 -7 -5 -15 -2 -18 9 -9 19 4 14 18 -4 11 -6 11 -12 0z"/>
<path d="M1880 1009 c0 -24 27 -56 38 -44 6 6 1 19 -14 35 -18 18 -24 20 -24
9z"/>
<path d="M3180 991 c0 -12 5 -21 10 -21 6 0 10 6 10 14 0 8 -4 18 -10 21 -5 3
-10 -3 -10 -14z"/>
<path d="M1390 981 c0 -12 13 -26 32 -35 17 -9 32 -15 33 -14 2 2 0 18 -2 36
-5 28 -9 32 -34 32 -22 0 -29 -5 -29 -19z"/>
<path d="M1127 974 c-8 -8 1 -24 14 -24 5 0 9 7 9 15 0 15 -12 20 -23 9z"/>
<path d="M380 955 c-7 -8 -10 -25 -6 -39 12 -48 76 -41 76 8 0 42 -45 62 -70
31z"/>
<path d="M3237 964 c-8 -8 1 -24 14 -24 5 0 9 7 9 15 0 15 -12 20 -23 9z"/>
<path d="M1927 954 c-8 -8 3 -34 14 -34 5 0 9 9 9 20 0 19 -11 26 -23 14z"/>
<path d="M1716 941 c-3 -5 1 -14 8 -20 16 -13 32 2 21 19 -8 12 -22 13 -29 1z"/>
<path d="M1022 923 c5 -26 38 -29 38 -4 0 15 -6 21 -21 21 -14 0 -19 -5 -17
-17z"/>
<path d="M1244 928 c-7 -10 21 -38 38 -38 16 0 8 25 -12 37 -14 9 -21 10 -26
1z"/>
<path d="M3183 933 c-17 -6 -16 -30 3 -87 21 -62 40 -55 36 15 -4 55 -17 80
-39 72z"/>
<path d="M1507 894 c-9 -10 2 -24 19 -24 8 0 14 7 14 15 0 15 -21 21 -33 9z"/>
<path d="M1420 869 c0 -5 5 -7 10 -4 6 3 10 8 10 11 0 2 -4 4 -10 4 -5 0 -10
-5 -10 -11z"/>
<path d="M2050 870 c0 -5 5 -10 10 -10 6 0 10 5 10 10 0 6 -4 10 -10 10 -5 0
-10 -4 -10 -10z"/>
<path d="M1971 851 c-8 -13 -17 -18 -28 -14 -13 5 -12 1 4 -17 20 -20 21 -25
8 -43 -10 -14 -11 -25 -4 -39 14 -25 29 -23 67 11 48 45 44 103 -10 116 -20 5
-29 2 -37 -14z m39 -71 c0 -5 -2 -10 -4 -10 -3 0 -8 5 -11 10 -3 6 -1 10 4 10
6 0 11 -4 11 -10z"/>
<path d="M1307 845 c-8 -20 3 -47 17 -42 6 2 11 14 11 27 0 27 -20 38 -28 15z"/>
<path d="M1645 838 c8 -27 22 -44 30 -37 7 7 -18 59 -28 59 -5 0 -5 -10 -2
-22z"/>
<path d="M1400 815 c0 -8 5 -15 10 -15 6 0 10 7 10 15 0 8 -4 15 -10 15 -5 0
-10 -7 -10 -15z"/>
<path d="M2100 820 c0 -5 5 -10 11 -10 5 0 7 5 4 10 -3 6 -8 10 -11 10 -2 0
-4 -4 -4 -10z"/>
<path d="M3256 814 c-30 -29 -12 -80 31 -88 39 -8 71 49 47 83 -18 25 -56 27
-78 5z"/>
<path d="M911 804 c0 -11 3 -14 6 -6 3 7 2 16 -1 19 -3 4 -6 -2 -5 -13z"/>
<path d="M1879 801 c-13 -11 -20 -23 -16 -27 4 -4 17 2 29 14 28 28 18 38 -13
13z"/>
<path d="M1605 770 c-4 -6 -16 -8 -27 -4 -24 7 -42 -14 -26 -33 11 -14 38 -18
38 -5 0 4 14 13 30 19 17 6 30 16 30 22 0 14 -37 14 -45 1z"/>
<path d="M593 743 c-15 -10 -23 -26 -23 -44 0 -16 -5 -29 -12 -29 -7 0 1 -8
19 -16 31 -15 52 -44 33 -44 -6 0 -10 -4 -10 -9 0 -5 11 -4 25 2 17 8 24 18
21 30 -2 9 -1 17 3 17 4 0 13 12 20 26 12 27 6 43 -29 71 -19 15 -20 15 -47
-4z"/>
<path d="M2116 741 c-8 -12 3 -41 15 -41 5 0 9 4 9 9 0 5 3 16 6 25 7 17 -20
23 -30 7z"/>
<path d="M1165 714 c-33 -30 -33 -73 1 -113 30 -36 40 -37 72 -11 36 30 46 72
27 109 -8 17 -19 32 -23 32 -38 7 -56 3 -77 -17z"/>
<path d="M2165 720 c-8 -14 3 -30 21 -30 8 0 14 9 14 20 0 21 -24 28 -35 10z"/>
<path d="M2285 710 c-3 -5 -2 -10 4 -10 5 0 13 5 16 10 3 6 2 10 -4 10 -5 0
-13 -4 -16 -10z"/>
<path d="M1896 703 c-12 -12 -5 -23 14 -23 11 0 20 4 20 9 0 11 -26 22 -34 14z"/>
<path d="M2236 681 c-4 -5 -2 -12 3 -15 5 -4 12 -2 15 3 4 5 2 12 -3 15 -5 4
-12 2 -15 -3z"/>
<path d="M762 661 c-8 -4 -12 -19 -10 -32 2 -18 9 -24 28 -24 28 0 39 27 20
50 -14 17 -20 18 -38 6z"/>
<path d="M2097 655 c-7 -16 8 -29 23 -20 15 9 12 35 -4 35 -8 0 -16 -7 -19
-15z"/>
<path d="M3630 654 c0 -8 5 -12 10 -9 6 3 10 10 10 16 0 5 -4 9 -10 9 -5 0
-10 -7 -10 -16z"/>
<path d="M1977 643 c-4 -3 -7 -11 -7 -17 0 -6 5 -5 12 2 6 6 9 14 7 17 -3 3
-9 2 -12 -2z"/>
<path d="M2350 634 c0 -8 5 -12 10 -9 6 3 10 10 10 16 0 5 -4 9 -10 9 -5 0
-10 -7 -10 -16z"/>
<path d="M512 618 c-35 -36 -72 -85 -72 -96 0 -5 -11 -17 -25 -26 -14 -9 -25
-23 -25 -30 0 -8 -9 -16 -20 -19 -10 -3 -22 -17 -26 -33 -14 -56 63 -80 84
-26 3 9 16 25 29 35 13 10 23 24 23 30 0 7 18 32 40 56 35 39 39 49 36 85 -4
48 -14 54 -44 24z"/>
<path d="M2010 591 c0 -11 4 -21 9 -21 18 0 21 18 6 30 -13 10 -15 9 -15 -9z"/>
<path d="M3310 565 c-14 -16 -6 -35 16 -35 8 0 14 10 14 25 0 28 -12 32 -30
10z"/>
<path d="M2591 543 c0 -5 4 -17 9 -28 8 -18 9 -17 9 8 1 15 -3 27 -9 27 -5 0
-10 -3 -9 -7z"/>
<path d="M1480 516 c0 -14 5 -28 10 -31 6 -4 10 7 10 24 0 17 -4 31 -10 31 -5
0 -10 -11 -10 -24z"/>
<path d="M1767 504 c-42 -33 -61 -64 -39 -64 12 0 97 89 91 95 -3 3 -27 -11
-52 -31z"/>
<path d="M2372 514 c-24 -17 -30 -62 -10 -82 7 -7 13 -29 14 -49 0 -20 6 -39
12 -41 7 -2 12 -10 12 -18 0 -33 104 -10 113 25 4 15 10 19 23 14 11 -4 15 -3
11 4 -10 16 20 36 43 30 22 -6 39 11 22 22 -5 3 -17 24 -26 46 -9 21 -22 43
-29 47 -20 13 -64 9 -77 -7 -17 -20 -26 -19 -50 5 -24 24 -29 24 -58 4z"/>
<path d="M320 495 c0 -8 5 -15 10 -15 6 0 10 7 10 15 0 8 -4 15 -10 15 -5 0
-10 -7 -10 -15z"/>
<path d="M2176 411 c-4 -7 -5 -15 -2 -18 9 -9 19 4 14 18 -4 11 -6 11 -12 0z"/>
<path d="M1463 393 c-18 -7 -16 -59 3 -77 20 -21 34 -12 34 23 0 32 -20 61
-37 54z"/>
<path d="M1580 374 c0 -8 5 -12 10 -9 6 4 8 11 5 16 -9 14 -15 11 -15 -7z"/>
<path d="M2987 364 c-12 -12 -8 -30 13 -54 24 -28 31 -23 33 22 2 26 -2 34
-18 36 -12 2 -24 0 -28 -4z"/>
<path d="M2590 350 c0 -5 5 -10 11 -10 5 0 7 5 4 10 -3 6 -8 10 -11 10 -2 0
-4 -4 -4 -10z"/>
<path d="M3135 277 c-16 -25 -12 -44 17 -92 7 -11 14 -21 14 -23 1 -2 14 9 30
23 15 14 34 23 41 21 17 -7 16 11 -5 54 -22 46 -72 55 -97 17z"/>
<path d="M2685 200 c-3 -5 -1 -10 4 -10 6 0 11 5 11 10 0 6 -2 10 -4 10 -3 0
-8 -4 -11 -10z"/>
<path d="M2660 181 c0 -5 7 -15 17 -22 15 -13 15 -12 4 9 -12 23 -21 28 -21
13z"/>
<path d="M2516 135 c-11 -8 -16 -18 -12 -22 3 -4 16 3 29 15 24 25 12 29 -17
7z"/>
</g>
</svg>
